<?xml version="1.0" encoding="utf-8"?>
<!-- Generator: Adobe Illustrator 16.0.4, SVG Export Plug-In . SVG Version: 6.00 Build 0)  -->
<!DOCTYPE svg PUBLIC "-//W3C//DTD SVG 1.1//EN" "http://www.w3.org/Graphics/SVG/1.1/DTD/svg11.dtd">
<svg version="1.1" id="Layer_1" xmlns="http://www.w3.org/2000/svg" xmlns:xlink="http://www.w3.org/1999/xlink" x="0px" y="0px"
	 width="500px" height="500px" viewBox="0 0 500 500" enable-background="new 0 0 500 500" xml:space="preserve">
<g>
	<path d="M391.131,422.17h-7.5c-2.336-2.664-5-5.078-8-7.25c-3-2.164-7.672-3.25-14-3.25c-5,0-10.422,0.922-16.25,2.75
		c-5.836,1.836-12.5,3.922-20,6.25s-15.922,4.414-25.25,6.25c-9.336,1.828-19.672,2.75-31,2.75c-21,0-41.421-3.836-61.25-11.5
		c-19.836-7.664-38.586-20.164-56.25-37.5c-16.336-16.328-30-35.664-41-58c-11-22.328-16.5-48.164-16.5-77.5
		c0-25,4.5-48.828,13.5-71.5c9-22.664,21.5-42.664,37.5-60c16-17.328,34.828-31.078,56.5-41.25c21.664-10.164,45.328-15.25,71-15.25
		c10.328,0,19.5,1,27.5,3s15.164,4.25,21.5,6.75c6.328,2.5,12.164,4.75,17.5,6.75c5.328,2,10.5,3,15.5,3
		c6.664,0,11.414-1.078,14.25-3.25c2.828-2.164,5.414-4.578,7.75-7.25h7.5v100h-5.5c-3-12.664-6.836-25.164-11.5-37.5
		c-4.672-12.328-11.172-23.25-19.5-32.75c-8.336-9.5-18.922-17.164-31.75-23c-12.836-5.828-28.75-8.75-47.75-8.75
		c-17.671,0-32.835,2.75-45.5,8.25c-12.672,5.5-23.336,12.836-32,22c-8.672,9.172-15.586,19.836-20.75,32
		c-5.172,12.172-9.086,25-11.75,38.5c-2.672,13.5-4.422,27.172-5.25,41c-0.836,13.836-1.25,26.922-1.25,39.25c0,35,2.828,64,8.5,87
		c5.664,23,13.578,41.172,23.75,54.5c10.164,13.336,22.414,22.672,36.75,28c14.328,5.336,30.164,8,47.5,8
		c22.328,0,40.328-3.164,54-9.5c13.664-6.328,24.664-14.578,33-24.75c8.328-10.164,14.664-21.664,19-34.5
		c4.328-12.828,8.164-25.578,11.5-38.25h5.5V422.17z"/>
</g>
</svg>
